<?xml version="1.0" standalone="no"?>
<!DOCTYPE svg PUBLIC "-//W3C//DTD SVG 20010904//EN"
 "http://www.w3.org/TR/2001/REC-SVG-20010904/DTD/svg10.dtd">
<svg version="1.0" xmlns="http://www.w3.org/2000/svg"
 width="366.000000pt" height="509.000000pt" viewBox="0 0 366.000000 509.000000"
 preserveAspectRatio="xMidYMid meet">

<g transform="translate(0.000000,509.000000) scale(0.100000,-0.100000)"
fill="#000000" stroke="none">
<path d="M350 4871 c-73 -23 -132 -72 -161 -136 -18 -38 -19 -127 -19 -2240 0
-2113 1 -2202 19 -2240 22 -49 62 -90 116 -119 l40 -21 1505 0 1505 0 44 23
c54 29 88 65 112 117 18 38 19 124 19 2240 0 2113 -1 2202 -19 2240 -22 49
-62 90 -116 119 l-40 21 -1490 2 c-820 1 -1501 -2 -1515 -6z m2979 -166 c16
-8 31 -22 35 -30 8 -22 8 -4338 0 -4360 -18 -47 33 -45 -1514 -45 -1547 0
-1496 -2 -1514 45 -3 9 -6 992 -6 2184 0 1719 3 2170 13 2183 6 8 21 20 32 26
14 8 441 11 1473 12 1256 0 1457 -2 1481 -15z"/>
<path d="M757 4013 c-14 -13 -7 -43 12 -53 13 -6 163 -10 420 -10 356 0 401 2
416 16 9 9 14 23 11 31 -3 8 -6 17 -6 19 0 7 -846 4 -853 -3z"/>
<path d="M754 3775 c-4 -8 -4 -22 0 -30 5 -13 62 -15 430 -15 367 0 425 2 430
15 3 8 3 22 0 30 -5 13 -63 15 -430 15 -368 0 -425 -2 -430 -15z"/>
<path d="M765 3606 c-16 -12 -17 -16 -6 -30 12 -14 47 -16 275 -16 149 0 267
4 276 10 12 7 12 13 4 27 -10 16 -34 18 -270 21 -211 2 -263 0 -279 -12z"/>
<path d="M2197 3603 c-16 -15 -6 -44 19 -53 34 -13 784 -13 819 0 20 7 26 16
23 33 l-3 22 -426 3 c-234 1 -429 -1 -432 -5z"/>
<path d="M2206 3377 c-10 -7 -16 -22 -14 -33 3 -18 16 -19 433 -19 417 0 430
1 433 19 9 44 -9 46 -433 46 -316 0 -405 -3 -419 -13z"/>
<path d="M2502 3201 c-8 -5 -12 -17 -10 -27 3 -18 17 -19 278 -19 261 0 275 1
278 19 2 10 -2 22 -10 27 -7 5 -128 9 -268 9 -140 0 -261 -4 -268 -9z"/>
<path d="M745 2715 c-14 -13 -25 -29 -25 -35 0 -6 11 -22 25 -35 l24 -25 928
0 c1023 0 973 -3 973 60 0 63 50 60 -973 60 l-928 0 -24 -25z"/>
<path d="M732 2467 c-28 -30 -28 -68 1 -95 l23 -22 1148 0 1147 0 24 25 c14
13 25 33 25 45 0 12 -11 32 -25 45 l-24 25 -1149 0 -1149 0 -21 -23z"/>
<path d="M732 2207 c-29 -30 -28 -62 3 -92 l24 -25 889 0 c850 0 891 1 913 18
31 26 31 78 0 104 -22 17 -63 18 -915 18 l-893 0 -21 -23z"/>
<path d="M753 1880 c-44 -18 -56 -77 -23 -110 20 -20 33 -20 918 -20 844 0
900 1 914 18 35 41 27 90 -19 111 -29 14 -1756 15 -1790 1z"/>
<path d="M735 1586 c-18 -27 -7 -69 20 -80 9 -3 322 -6 694 -6 644 0 679 1
694 18 20 22 22 63 5 80 -9 9 -179 12 -705 12 l-693 0 -15 -24z"/>
<path d="M2300 988 c-238 -219 -256 -243 -210 -268 11 -6 26 -8 33 -4 6 4 83
73 170 153 87 80 163 148 169 150 6 2 8 -5 4 -15 -3 -11 -17 -70 -31 -132 -20
-88 -23 -117 -14 -128 22 -27 54 -14 125 51 39 35 74 61 78 58 3 -3 6 -32 6
-64 0 -89 8 -88 252 31 113 55 211 107 218 115 15 18 10 45 -12 59 -15 9 -51
-6 -193 -77 -96 -48 -177 -87 -180 -87 -3 0 -5 31 -5 69 0 70 -14 101 -45 101
-7 0 -39 -23 -70 -51 -30 -29 -58 -49 -61 -46 -3 3 6 56 20 117 14 60 26 121
26 133 0 25 -17 47 -37 47 -7 0 -116 -95 -243 -212z"/>
</g>
</svg>
