<?xml version="1.0" standalone="no"?>
<!DOCTYPE svg PUBLIC "-//W3C//DTD SVG 20010904//EN"
 "http://www.w3.org/TR/2001/REC-SVG-20010904/DTD/svg10.dtd">
<svg version="1.0" xmlns="http://www.w3.org/2000/svg"
 width="414.000000pt" height="540.000000pt" viewBox="0 0 414.000000 540.000000"
 preserveAspectRatio="xMidYMid meet">

<g transform="translate(0.000000,540.000000) scale(0.100000,-0.100000)"
fill="#000000" stroke="none">
<path d="M425 5306 l-7 -86 -114 0 -114 0 0 -1373 0 -1373 -90 -1079 c-49
-593 -87 -1081 -85 -1083 3 -3 42 -8 87 -13 46 -4 84 -8 86 -8 1 -1 2 -39 2
-86 l0 -85 1040 0 1041 0 720 -60 c396 -33 722 -60 724 -60 3 0 5 17 5 38 0
81 2 82 101 82 l89 0 0 1103 0 1102 110 1325 c60 729 112 1348 115 1377 6 60
11 57 -137 68 l-88 7 0 59 0 59 -714 0 -714 0 -969 80 c-532 44 -993 82 -1025
86 l-56 6 -7 -86z m312 -61 c98 -9 183 -17 188 -20 6 -2 -79 -4 -187 -4 -192
-1 -198 0 -198 19 0 11 4 20 9 20 6 0 90 -7 188 -15z m3053 -2575 l0 -2430
-1740 0 -1740 0 0 2430 0 2430 1740 0 1740 0 0 -2430z m215 2299 c2 -2 -18
-261 -45 -574 l-48 -570 -1 579 -1 579 45 -6 c26 -2 48 -6 50 -8z m-3815
-4280 l0 -280 -22 7 c-13 3 -24 7 -25 8 -3 3 41 546 44 546 2 0 3 -126 3 -281z"/>
<path d="M2723 4816 c-92 -30 -167 -99 -211 -195 -22 -46 -26 -70 -26 -137 0
-72 4 -90 32 -147 36 -73 95 -132 170 -168 39 -20 63 -24 142 -24 85 0 101 3
148 28 108 57 170 138 192 253 29 147 -50 301 -187 369 -69 34 -190 44 -260
21z"/>
<path d="M567 4302 c-21 -23 -22 -52 -3 -78 14 -18 33 -19 676 -19 643 0 662
1 676 19 19 27 18 60 -4 79 -17 15 -78 17 -674 17 -622 0 -656 -1 -671 -18z"/>
<path d="M2632 4090 c-160 -22 -261 -81 -309 -177 -27 -56 -28 -63 -31 -245
l-4 -188 96 0 96 0 0 124 c0 117 11 186 31 186 5 0 9 -70 9 -155 l0 -155 310
0 310 0 0 157 c0 150 1 156 18 140 14 -15 18 -40 20 -157 l4 -140 95 0 95 0
-4 188 c-3 165 -5 192 -24 233 -41 87 -114 141 -239 174 -71 19 -375 29 -473
15z m230 -277 l27 -176 -26 -34 c-14 -18 -29 -33 -34 -33 -4 0 -19 15 -33 33
l-26 34 27 176 c15 97 30 177 33 177 3 0 17 -79 32 -177z"/>
<path d="M567 3942 c-21 -23 -22 -52 -3 -78 14 -18 33 -19 676 -19 643 0 662
1 676 19 19 27 18 60 -4 79 -17 15 -78 17 -674 17 -622 0 -656 -1 -671 -18z"/>
<path d="M567 3582 c-21 -23 -22 -52 -3 -78 14 -18 33 -19 676 -19 643 0 662
1 676 19 19 27 18 60 -4 79 -17 15 -78 17 -674 17 -622 0 -656 -1 -671 -18z"/>
<path d="M567 2982 c-21 -23 -22 -52 -3 -78 14 -19 41 -19 1486 -19 1445 0
1472 0 1486 19 19 27 18 60 -4 79 -17 16 -134 17 -1484 17 -1406 0 -1466 -1
-1481 -18z"/>
<path d="M567 2622 c-21 -23 -22 -52 -3 -78 14 -19 41 -19 1486 -19 1445 0
1472 0 1486 19 19 27 18 60 -4 79 -17 16 -134 17 -1484 17 -1406 0 -1466 -1
-1481 -18z"/>
<path d="M567 2262 c-21 -23 -22 -52 -3 -78 14 -19 41 -19 1486 -19 1445 0
1472 0 1486 19 19 27 18 60 -4 79 -17 16 -134 17 -1484 17 -1406 0 -1466 -1
-1481 -18z"/>
<path d="M567 1902 c-21 -23 -22 -52 -3 -78 14 -19 41 -19 1486 -19 1445 0
1472 0 1486 19 19 27 18 60 -4 79 -17 16 -134 17 -1484 17 -1406 0 -1466 -1
-1481 -18z"/>
<path d="M567 1482 c-21 -23 -22 -52 -3 -78 14 -19 41 -19 1486 -19 1445 0
1472 0 1486 19 19 27 18 60 -4 79 -17 16 -134 17 -1484 17 -1406 0 -1466 -1
-1481 -18z"/>
<path d="M567 1062 c-21 -23 -22 -52 -3 -78 14 -19 41 -19 1486 -19 1445 0
1472 0 1486 19 19 27 18 60 -4 79 -17 16 -134 17 -1484 17 -1406 0 -1466 -1
-1481 -18z"/>
<path d="M567 642 c-21 -23 -22 -52 -3 -78 14 -19 35 -19 886 -19 851 0 872 0
886 19 19 27 18 60 -4 79 -17 16 -93 17 -884 17 -825 0 -866 -1 -881 -18z"/>
</g>
</svg>
